<svg width="22" height="22" viewBox="0 0 22 22" fill="none" xmlns="http://www.w3.org/2000/svg">
<path d="M10.9284 4.43773C9.23422 4.43773 7.85596 5.81604 7.85596 7.51021C7.85596 9.20443 9.23427 10.5827 10.9284 10.5827C12.6226 10.5827 14.0009 9.20438 14.0009 7.51021C14.0009 5.81604 12.6227 4.43773 10.9284 4.43773Z" fill="#753ED6"/>
<path d="M10.9283 0C6.72192 0 3.2998 3.42212 3.2998 7.62846C3.2998 9.34901 4.50675 12.1846 6.88709 16.0565C8.62741 18.8873 10.3924 21.2763 10.41 21.3001L10.9283 22L11.4466 21.3001C11.4642 21.2763 13.2291 18.8873 14.9694 16.0565C17.3498 12.1846 18.5567 9.34901 18.5567 7.62846C18.5567 3.42212 15.1346 0 10.9283 0ZM10.9283 11.8725C8.52287 11.8725 6.56599 9.9156 6.56599 7.51025C6.56599 5.10486 8.52291 3.14798 10.9283 3.14798C13.3336 3.14798 15.2905 5.1049 15.2905 7.51025C15.2905 9.9156 13.3337 11.8725 10.9283 11.8725Z" fill="#753ED6"/>
</svg>
